<svg width="21" height="18" viewBox="0 0 21 18" fill="none" xmlns="http://www.w3.org/2000/svg">
<path d="M20.0193 11.3387C20.0444 11.2789 20.0579 11.2158 20.0766 11.1541C20.094 11.0955 20.1165 11.0396 20.1287 10.9791C20.1532 10.8562 20.166 10.7314 20.166 10.6066C20.166 10.6046 20.1667 10.6033 20.1667 10.6021C20.1667 10.4753 20.1532 10.3486 20.1287 10.2238C20.1171 10.1665 20.0959 10.1137 20.0798 10.0584C20.0605 9.99343 20.0457 9.92716 20.0193 9.86411C19.9917 9.7972 19.9537 9.73672 19.919 9.67367C19.8932 9.62671 19.8727 9.57781 19.8424 9.53277C19.771 9.42597 19.6899 9.32625 19.5992 9.23554L14.6826 4.31888C13.9285 3.56485 12.7074 3.56485 11.9534 4.31888C11.1994 5.07227 11.1994 6.29468 11.9534 7.04807L13.5773 8.67194H8.68441C6.48344 8.67194 4.69358 6.88208 4.69358 4.6811V1.97186C4.69358 0.905797 3.82953 0.041748 2.76346 0.041748C1.69739 0.041748 0.833344 0.905797 0.833344 1.97186V4.6811C0.833344 9.01036 4.35581 12.5322 8.68441 12.5322H13.5779L11.9534 14.1567C11.1994 14.9107 11.1994 16.1325 11.9534 16.8859C12.3304 17.2622 12.8239 17.4508 13.318 17.4508C13.8121 17.4508 14.3062 17.2622 14.6826 16.8852L19.5992 11.9679C19.6899 11.8772 19.7716 11.7775 19.8431 11.6701C19.8714 11.6276 19.89 11.5819 19.9151 11.5382C19.9511 11.4725 19.9904 11.4088 20.0193 11.3387Z" fill="black"/>
</svg>
